<svg id="icons" enable-background="new 0 0 64 64" height="512" viewBox="0 0 64 64" width="512" xmlns="http://www.w3.org/2000/svg"><path d="m63 49.999h-33.607c-.553 0-1 .447-1 1 0 .183.062.344.147.491l-4.56 2.63.02.03v5.85h-6v-2.42l-5 2.88v1.539c-.552.001-.998.448-.998 1 0 .553.447 1 1 1h49.998c.553 0 1-.447 1-1v-12c0-.553-.447-1-1-1zm-3 4.001v6h-6v-6zm-9 0v6h-6v-6zm-15 0h6v6h-6zm-9 0h6v6h-6z" fill="#ccd1d9"/><path d="m60.002 53-6-.001c-.266 0-.52.105-.707.293s-.293.441-.293.707v6c0 .552.447 1 1 1l6 .001c.266 0 .52-.105.707-.293s.293-.441.293-.707v-6c0-.552-.447-1-1-1z" fill="#5ddbb7"/><path d="m51.709 53.293c-.188-.188-.441-.293-.707-.293l-6.002-.002c-.266 0-.52.105-.707.293s-.293.441-.293.707v6.002c0 .553.447 1 1 1h6c.552 0 1-.447 1-1l.002-6c0-.265-.106-.52-.293-.707z" fill="#48cfad"/><path d="m42 53-6-.002c-.266 0-.52.105-.707.293s-.293.441-.293.707v6.001c0 .552.447 1 1 1l6 .001c.266 0 .52-.105.707-.293s.293-.441.293-.707v-6c0-.552-.447-1-1-1z" fill="#37bc9b"/><path d="m32.998 53h-6c-.553 0-1 .447-1 1v5.998c0 .553.447 1 1 1h6c.553 0 1-.447 1-1v-5.998c0-.553-.447-1-1-1z" fill="#34b28e"/><path d="m23.998 53.147c-.553 0-1 .447-1 1v.541l-4.146 2.399c-.173-.3-.482-.51-.854-.51-.553 0-1 .447-1 1v2.421c0 .553.447 1 1 1h6c.553 0 1-.447 1-1v-5.852c0-.551-.447-.999-1-.999z" fill="#2fa580"/><path d="m59.362 33.695-6-10.393c-.133-.229-.352-.397-.607-.466-.256-.067-.529-.032-.759.1l-29.105 16.805c-.479.276-.643.888-.366 1.366.092.158.227.268.375.353l-2.62 4.54 2.939 5.1-5.189 3-1.22-2.1-3.81 6.6v.708l-.5.289c-.479.276-.643.888-.366 1.366.186.321.521.5.867.5.17 0 .342-.043.499-.134l45.496-26.268c.479-.276.643-.887.366-1.366zm-23.552 3.205 3 5.199-5.189 3-3-5.199zm2.6-1.5 5.2-3 3 5.199-5.2 3zm7.8-4.5 5.19-3 3 5.199-5.19 3zm-23.39 13.5 5.199-3 3 5.199-5.199 3z" fill="#e6e9ed"/><path d="m55.267 32.598-3-5.196c-.277-.479-.89-.643-1.366-.366l-5.195 2.999c-.229.133-.397.352-.466.607s-.033.529.1.759l3 5.196c.186.321.521.5.867.5.17 0 .342-.043.499-.134l5.195-2.999c.229-.133.397-.352.466-.607s.032-.53-.1-.759z" fill="#ffd67b"/><path d="m47.472 37.098-2.998-5.196c-.277-.479-.888-.643-1.366-.366l-5.199 2.999c-.229.133-.397.351-.466.607-.068.256-.033.529.1.759l3 5.197c.133.229.352.397.607.466.085.022.172.034.259.034.174 0 .347-.046.5-.134l5.197-3c.478-.276.642-.888.366-1.366z" fill="#ffce54"/><path d="m39.677 41.598-2.998-5.195c-.276-.477-.884-.643-1.366-.366l-5.199 2.998c-.229.133-.397.351-.466.607-.068.256-.033.529.1.759l3 5.197c.133.229.352.397.607.466.085.022.172.034.259.034.174 0 .347-.046.5-.134l5.197-3c.478-.276.642-.888.366-1.366z" fill="#f6bb42"/><path d="m31.88 46.098-2.998-5.194c-.133-.229-.352-.397-.607-.466s-.529-.033-.759.1l-5.197 3c-.229.133-.397.352-.466.607s-.033.529.1.759l3 5.194c.186.321.521.5.867.5.17 0 .342-.043.499-.134l5.195-3c.478-.276.642-.888.366-1.366z" fill="#edab37"/><path d="m24.087 50.599-2.997-5.189c-.272-.479-.882-.648-1.363-.375-.48.272-.648.884-.375 1.363l.349.604-2.397 4.146c-.3-.171-.672-.198-.99-.014-.479.276-.643.888-.366 1.366l1.211 2.098c.186.321.521.5.867.5.17 0 .342-.043.499-.134l5.197-3c.229-.133.397-.352.466-.607s.032-.529-.101-.758z" fill="#e29f33"/><path d="m41.161 11.243c-.068-.256-.236-.475-.466-.607l-10.393-6c-.479-.277-1.09-.113-1.366.366l-16.802 29.102c-.276.479-.112 1.09.366 1.366.158.091.329.118.5.117v5.253l5.1 2.94-3 5.189-2.1-1.209v8.845l-.866 1.5c-.276.479-.112 1.09.366 1.366.157.091.329.134.499.134.346 0 .682-.179.867-.5l27.195-47.103c.133-.23.168-.503.1-.759zm-19.251 13.947 5.189 3-3 5.189-5.199-3zm1.49-2.6 3.01-5.2 5.189 3-3 5.2zm4.5-7.8 3-5.19 5.199 3-3 5.19zm-13.5 23.39 3-5.199 5.199 3-3 5.199z" fill="#ccd1d9"/><path d="m37.065 12.341c-.068-.256-.236-.475-.466-.607l-5.197-3c-.479-.276-1.09-.113-1.366.366l-3 5.195c-.133.229-.168.503-.1.759s.236.475.466.607l5.197 3c.157.091.329.134.499.134.346 0 .682-.179.867-.5l3-5.195c.134-.23.169-.503.1-.759z" fill="#ef5e72"/><path d="m32.098 19.528-5.193-3.001c-.478-.276-1.09-.113-1.366.366l-3.004 5.196c-.132.229-.168.502-.1.759.068.256.236.475.466.607l5.197 3.001c.153.088.326.134.5.134.087 0 .174-.012.259-.034.256-.068.475-.236.607-.466l3-5.196c.275-.478.112-1.089-.366-1.366z" fill="#ed5565"/><path d="m27.598 27.323-5.193-3c-.479-.276-1.09-.112-1.365.365l-3.004 5.195c-.133.23-.169.503-.101.76.068.256.236.475.466.607l5.197 3c.157.091.329.134.499.134.346 0 .682-.179.867-.5l3-5.195c.276-.478.112-1.089-.366-1.366z" fill="#da4453"/><path d="m23.096 35.118-5.193-2.999c-.478-.276-1.09-.113-1.366.366l-3.002 5.196c-.133.229-.168.503-.1.759s.236.475.466.607l5.195 2.999c.157.091.329.134.499.134.346 0 .682-.18.867-.5l3-5.196c.276-.478.112-1.089-.366-1.366z" fill="#d3374e"/><path d="m19.063 43.521c-.068-.256-.236-.475-.466-.607l-5.097-2.943c-.478-.276-1.09-.112-1.366.366s-.112 1.09.366 1.366l.5.289v4.747c-.367-.024-.735.148-.933.488-.276.479-.112 1.09.366 1.366l2.162 1.248c.157.091.329.134.499.134.346 0 .682-.179.867-.5l3.002-5.196c.134-.229.169-.503.1-.758z" fill="#c12f4b"/><path d="m13 0h-12c-.553 0-1 .447-1 1v62c0 .553.447 1 1 1h12c.553 0 1-.447 1-1v-62c0-.553-.447-1-1-1zm-3 13v6h-6v-6zm-6-3v-6h6v6zm6 12v6h-6v-6zm0 9v6h-6v-6zm0 9v6h-6v-6zm-5 17c0-.08 0-.17.02-.25 0-.01 0-.01 0-.01.011-.08.021-.17.051-.25.01-.08.04-.15.069-.221.01-.009.01-.029.02-.049.02-.069.06-.14.1-.2 0-.01.01-.01.01-.02.03-.06.07-.12.11-.17.03-.04.05-.07.08-.11.021-.02.03-.04.06-.06.04-.05.09-.1.14-.14.04-.039.07-.069.109-.1.011-.01.03-.03.061-.04.06-.04.11-.08.17-.11.08-.05.16-.09.25-.119.06-.03.11-.051.16-.061.05-.02.109-.03.16-.04.02-.01.029-.01.05-.01.04-.01.08-.021.12-.021h.01c.04-.01.08-.01.12-.01.08-.01.17-.01.26 0 .04 0 .08 0 .12.01h.01c.04 0 .08.011.12.021.021 0 .05 0 .07.01.04.01.09.021.13.03.03.01.06.03.1.04.011 0 .03.01.051.02.02.011.039.011.06.03.06.021.13.05.19.09.01 0 .01.01.02.01.06.03.11.061.17.11.019.01.029.02.049.03l.011.01c.06.04.119.09.17.14v.011l.01.01c.01.01.02.01.02.02.049.039.089.089.139.139 0 .01.01.02.02.029v.011c.03.029.05.069.07.1.03.04.06.08.08.12.01.01.01.03.02.04.05.09.101.18.12.28.021.029.03.069.04.1s.02.06.02.09c.01.03.02.061.02.08.021.061.03.13.03.2.02.14.02.27 0 .41 0 .06-.01.12-.03.18 0 .021 0 .03-.01.05 0 .021-.01.04-.01.07-.011.03-.021.06-.03.09-.01.05-.03.101-.05.16 0 0 0 0-.011.01-.029.061-.06.13-.09.19 0 .01-.01.02-.01.03-.009.01-.009.01-.019.02-.021.04-.051.08-.07.12-.021.03-.04.05-.05.08-.01.01-.02.01-.02.02l-.01.01c-.01.01-.021.02-.03.029v.01c-.02.021-.04.051-.07.071-.061.07-.12.13-.2.2-.021.01-.03.02-.05.04-.01.01-.03.02-.06.04-.05.04-.11.08-.17.11 0 0-.01.01-.02.01-.061.04-.131.08-.2.1-.01.01-.03.02-.06.02-.069.029-.14.05-.2.069h-.01c-.08.03-.17.04-.25.051-.08.01-.16.02-.24.02 0 0-.01 0-.02 0-.09 0-.17-.01-.25-.02-.01 0-.01 0-.01 0-.09-.01-.17-.02-.24-.05 0 0 0 0-.01 0-.08-.02-.16-.05-.24-.08s-.17-.07-.25-.12c-.06-.03-.12-.07-.17-.11-.061-.04-.12-.09-.17-.14-.021-.021-.05-.04-.07-.07 0 0 0 0-.01-.01-.02-.01-.04-.03-.06-.06-.05-.05-.1-.109-.14-.17-.04-.05-.08-.11-.11-.17-.09-.15-.159-.32-.199-.49-.03-.08-.04-.16-.051-.25 0-.01 0-.01 0-.01-.01-.08-.02-.16-.02-.25z" fill="#e6e9ed"/><path d="m10 2.999h-6c-.553 0-1 .447-1 1v6c0 .553.447 1 1 1h6c.553 0 1-.447 1-1v-6c0-.553-.447-1-1-1z" fill="#87bcf4"/><path d="m10 12h-6c-.553 0-1 .447-1 1v6c0 .553.447 1 1 1h6c.553 0 1-.447 1-1v-6c0-.553-.447-1-1-1z" fill="#5d9cec"/><path d="m10 21.001h-6c-.553 0-1 .447-1 1v6c0 .553.447 1 1 1h6c.553 0 1-.447 1-1v-6c0-.553-.447-1-1-1z" fill="#4a89dc"/><path d="m10 30.002h-6c-.553 0-1 .447-1 1v6c0 .553.447 1 1 1h6c.553 0 1-.447 1-1v-6c0-.553-.447-1-1-1z" fill="#3679ce"/><path d="m10 39.003h-6c-.553 0-1 .447-1 1v6c0 .553.447 1 1 1h6c.553 0 1-.447 1-1v-6c0-.553-.447-1-1-1z" fill="#2d74c1"/><circle cx="7" cy="57" fill="#656d78" r="2"/></svg>